<?xml version="1.0" encoding="UTF-8" standalone="no"?>
<!-- Created with Inkscape (http://www.inkscape.org/) -->

<svg
   width="55.747921mm"
   height="44.455208mm"
   viewBox="0 0 55.747923 44.455207"
   version="1.1"
   id="svg5"
   inkscape:version="1.3.2 (091e20e, 2023-11-25, custom)"
   sodipodi:docname="Speakbot.svg"
   xml:space="preserve"
   xmlns:inkscape="http://www.inkscape.org/namespaces/inkscape"
   xmlns:sodipodi="http://sodipodi.sourceforge.net/DTD/sodipodi-0.dtd"
   xmlns="http://www.w3.org/2000/svg"
   xmlns:svg="http://www.w3.org/2000/svg"><sodipodi:namedview
     id="namedview7"
     pagecolor="#ffffff"
     bordercolor="#000000"
     borderopacity="0.25"
     inkscape:showpageshadow="2"
     inkscape:pageopacity="0.0"
     inkscape:pagecheckerboard="true"
     inkscape:deskcolor="#d1d1d1"
     inkscape:document-units="mm"
     showgrid="false"
     inkscape:zoom="2"
     inkscape:cx="114.25"
     inkscape:cy="138.25"
     inkscape:window-width="1920"
     inkscape:window-height="1017"
     inkscape:window-x="3832"
     inkscape:window-y="-8"
     inkscape:window-maximized="1"
     inkscape:current-layer="layer1" /><defs
     id="defs2"><filter
       inkscape:collect="always"
       style="color-interpolation-filters:sRGB"
       id="filter2997"
       x="-0.052311395"
       y="-0.068636786"
       width="1.10462"
       height="1.1372736"><feGaussianBlur
         inkscape:collect="always"
         stdDeviation="0.83346118"
         id="feGaussianBlur2999" /></filter></defs><g
     inkscape:label="Layer 1"
     inkscape:groupmode="layer"
     id="layer1"
     transform="translate(-33.3375,-64.690625)"><path
       style="fill:#ffffff;stroke:#000000;stroke-width:2.47304;stroke-linecap:round;stroke-linejoin:round;stroke-dasharray:none"
       d="m 35.067904,105.3094 h 14.341244 v -5.15695 l -5.899576,-3.776342 5.659756,-3.938765 0.191856,-4.507249 4.748439,-0.121818 -7.093173,-7.649591 C 45.928266,76.60531 39.761316,67.813347 35.019941,67.221117"
       id="path4"
       sodipodi:nodetypes="ccccccccc" /><path
       id="path2995"
       style="mix-blend-mode:normal;fill:#000000;fill-rule:evenodd;stroke:#000000;stroke-width:1.41111;stroke-linecap:round;stroke-linejoin:round;stroke-dasharray:none;filter:url(#filter2997)"
       d="m 150.58474,67.46875 a 21.960417,19.711458 0 0 0 -21.96042,19.711458 21.960417,19.711458 0 0 0 21.96042,19.711452 21.960417,19.711458 0 0 0 15.60835,-5.86424 l 14.15728,5.59966 -9.41803,-12.050945 a 21.960417,19.711458 0 0 0 1.61282,-7.395927 21.960417,19.711458 0 0 0 -21.96042,-19.711458 z" /><path
       id="path2569"
       style="fill:#ffffff;fill-rule:evenodd;stroke:#000000;stroke-width:1.41111;stroke-linecap:round;stroke-linejoin:round;stroke-dasharray:none"
       d="m 150.05557,66.542708 a 21.960417,19.711458 0 0 0 -21.96041,19.711458 21.960417,19.711458 0 0 0 21.96041,19.711454 21.960417,19.711458 0 0 0 15.60835,-5.86424 l 14.15728,5.59966 -9.41803,-12.050947 a 21.960417,19.711458 0 0 0 1.61282,-7.395927 21.960417,19.711458 0 0 0 -21.96042,-19.711458 z" /><g
       id="g3965"
       transform="matrix(0.27191805,0,0,0.27215503,55.044597,-35.540062)"
       style="stroke-width:5.18721;stroke-dasharray:none"><path
         id="path3068"
         d="M 348.10486,394.94204"
         inkscape:connector-curvature="0"
         style="fill:none;stroke-width:5.18721;stroke-dasharray:none" /><path
         id="path3070"
         d="M 348.49386,491.12504"
         inkscape:connector-curvature="0"
         style="fill:#e68726;stroke-width:5.18721;stroke-dasharray:none" /><g
         transform="translate(10.20086,-82.073963)"
         id="g3096"
         style="stroke-width:5.18721;stroke-dasharray:none"><g
           id="g3089"
           style="stroke-width:5.18721;stroke-dasharray:none"><path
             d="m 329.085,559.977 c -0.55,0 -1.1,0 -2.089,0 0,-2.374 0,-4.65 0,-7.025 0.22,-9.202 -3.411,-17.316 -8.8,-24.936 -7.15,-10.391 -7.92,-21.176 -1.43,-31.962 5.06,-8.411 13.089,-13.26 23.98,-13.062 8.58,0.198 15.4,4.156 20.57,10.192 8.689,10.291 9.019,24.837 0.33,35.623 -4.4,5.542 -7.261,11.578 -9.13,18.01 -0.99,3.266 -0.621,6.88 -0.99,10.291 -0.11,0.989 -0.046,1.868 -0.164,2.886 -0.989,0 -2.586,-0.017 -3.577,-0.017 -6.159,0 -12.43,0 -18.7,0 z"
             inkscape:connector-curvature="0"
             id="path2992"
             style="fill:#e68726;stroke-width:5.18721;stroke-dasharray:none" /></g></g><g
         id="g3079"
         transform="translate(10.20086,-82.073963)"
         style="stroke-width:5.18721;stroke-dasharray:none"><path
           style="fill:#e68726;stroke-width:5.18721;stroke-dasharray:none"
           inkscape:connector-curvature="0"
           d="m 330.964,581.524 c 1.522,2.737 4.637,4.618 8.242,4.618 4.735,0 8.631,-3.239 9.17,-7.412 z"
           id="path3081" /></g><g
         id="g3083"
         transform="translate(10.20086,-82.073963)"
         style="stroke-width:5.18721;stroke-dasharray:none"><path
           style="fill:#e68726;stroke-width:5.18721;stroke-dasharray:none"
           inkscape:connector-curvature="0"
           d="m 328.344,565.565 c -1.742,0.342 -3.076,1.697 -2.976,2.976 0.101,1.277 1.561,2.006 3.257,1.655 7.037,-1.448 14.165,-2.464 21.332,-2.972 1.754,-0.126 3.275,-1.202 3.372,-2.43 0.097,-1.228 -1.301,-2.175 -3.1,-2.063 -7.348,0.456 -14.661,1.421 -21.885,2.834 z"
           id="path3085" /><path
           style="fill:#e68726;stroke-width:5.18721;stroke-dasharray:none"
           inkscape:connector-curvature="0"
           d="m 328.846,573.812 c -1.661,0.357 -2.927,1.727 -2.826,3.004 0.101,1.277 1.494,1.993 3.109,1.627 7.97,-1.809 12.068,-2.471 20.344,-3.221 1.677,-0.151 3.134,-1.249 3.231,-2.477 0.097,-1.228 -1.239,-2.149 -2.959,-2.013 -8.492,0.68 -12.702,1.315 -20.899,3.08 z"
           id="path3087" /></g></g><g
       style="overflow:hidden;fill:currentColor"
       id="g1"
       transform="matrix(0.05349133,0,0,0.05349133,26.937304,59.840629)"><path
         d="m 554.742,731.153 c -10.54,0 -20.21,-6.98 -23.172,-17.626 -3.56,-12.809 3.936,-26.064 16.733,-29.636 12.15,-3.36 20.635,-14.524 20.635,-27.144 0,-12.503 -8.015,-23.338 -19.941,-26.957 -12.726,-3.878 -19.894,-17.32 -16.04,-30.035 3.877,-12.738 17.38,-19.86 30.023,-16.028 32.35,9.847 54.089,39.177 54.089,73.02 0,34.147 -22.973,64.37 -55.863,73.536 -2.163,0.589 -4.337,0.87 -6.464,0.87 z"
         id="path1"
         sodipodi:nodetypes="sccscccscs" /><path
         d="m 625.635,820.53 c -8.66,0 -17.015,-4.676 -21.328,-12.878 -6.18,-11.751 -1.656,-26.298 10.107,-32.48 44.3,-23.29 71.821,-68.813 71.821,-118.802 0,-49.19 -26.886,-94.36 -70.152,-117.885 -11.68,-6.345 -16.005,-20.963 -9.648,-32.643 6.345,-11.68 20.94,-15.981 32.632,-9.66 58.778,31.963 95.3,93.35 95.3,160.19 0,67.919 -37.38,129.776 -97.556,161.386 a 23.945,23.945 0 0 1 -11.176,2.773 z"
         id="path2" /><path
         d="m 697.727,893.034 c -8.66,0 -17.016,-4.676 -21.328,-12.88 -6.18,-11.75 -1.656,-26.298 10.106,-32.479 C 757.94,810.12 802.31,736.7 802.31,656.09 c 0,-79.342 -43.35,-152.174 -113.114,-190.106 -11.68,-6.37 -16.005,-20.964 -9.648,-32.644 6.345,-11.703 20.963,-15.98 32.632,-9.659 85.288,46.37 138.261,135.418 138.261,232.41 0,98.567 -54.23,188.296 -141.54,234.171 a 23.94,23.94 0 0 1 -11.174,2.773 z"
         id="path3" /></g><circle
       style="fill:#000000;stroke:none;stroke-width:2.5992;stroke-linecap:square;stroke-linejoin:round;stroke-dasharray:none"
       id="path5"
       cx="40.959118"
       cy="79.891251"
       r="1.4431074" /></g></svg>
